<?xml version="1.0" encoding="utf-8"?>
<!-- Generator: Adobe Illustrator 19.0.0, SVG Export Plug-In . SVG Version: 6.00 Build 0)  -->
<svg version="1.1" id="Layer_1" xmlns="http://www.w3.org/2000/svg" xmlns:xlink="http://www.w3.org/1999/xlink" x="0px" y="0px"
	 viewBox="0 0 98.2 40.3" enable-background="new 0 0 98.2 40.3" xml:space="preserve">
<g id="logo" display="none">
	<path id="XMLID_11_" display="inline" fill="#40444F" d="M48.9-33.2L45.4-26c0,0,1.9,1.7,3.4,1.7c1.6,0,3.4-1.7,3.4-1.7L48.9-33.2z
		"/>
	<circle id="XMLID_7_" display="inline" fill="#40444F" cx="48.9" cy="-39.2" r="2.7"/>
	
		<polyline id="XMLID_10_" display="inline" fill="none" stroke="#40444F" stroke-width="2" stroke-linecap="round" stroke-miterlimit="10" points="
		48.9,-33.2 61.3,-7.1 61.3,6.2 36.4,6.2 36.4,-7.1 48.9,-33.2 	"/>
	
		<path id="XMLID_12_" display="inline" fill="none" stroke="#40444F" stroke-width="2" stroke-linecap="round" stroke-miterlimit="10" d="
		M48.9,70.6l12.5-26.1h2.3c0,0,0-1.9-0.4-2.3c-0.3-0.4-1.9-0.9-1.9-0.9V31.1H36.4v10.2c0,0-1.6,0.5-1.9,0.9
		c-0.4,0.5-0.4,2.3-0.4,2.3h2.3L48.9,70.6"/>
	<path id="XMLID_28_" display="inline" fill="#40444F" d="M84.7,5.1H61.3V-7.1l-5.2,6.3l-7.3-6.3l-7.3,6.3l-5.2-6.3V5.1h-8.7L25-1.5
		L0,5.1v13.5c0,7.5,6.1,13.5,13.5,13.5h22.9v9.1c0,0-1.6,0.5-1.9,0.9c-0.4,0.5-0.4,2.3-0.4,2.3h29.5c0,0,0-1.9-0.4-2.3
		c-0.3-0.4-1.9-0.9-1.9-0.9v-9.1h9.1l2.7,6.6l25-6.6V18.6C98.2,11.2,92.1,5.1,84.7,5.1z M96,30H13.5C7.2,30,2.1,24.9,2.1,18.6V7.3
		h82.5c6.3,0,11.4,5.1,11.4,11.4V30z"/>
	<path id="XMLID_13_" display="inline" fill="#40444F" d="M51,53c0-1.2-1-2.1-2.1-2.1s-2.1,1-2.1,2.1c0,0.8,0.4,1.5,1.1,1.8v15.8
		c0,0.6,0.5,1.1,1.1,1.1c0.6,0,1.1-0.5,1.1-1.1V54.8C50.6,54.4,51,53.8,51,53z"/>
	<path id="XMLID_18_" display="inline" fill="#40444F" d="M50.7,78.6l3.1-2.7c0.4-0.4,0.5-1.1,0.1-1.5c-0.4-0.4-1.1-0.5-1.5-0.1
		l-3.4,2.9l-3.4-2.9c-0.4-0.4-1.1-0.3-1.5,0.1c-0.4,0.4-0.3,1.1,0.1,1.5l3.1,2.7l-3.1,2.7c-0.4,0.4-0.5,1.1-0.1,1.5
		c0.2,0.2,0.5,0.4,0.8,0.4c0.2,0,0.5-0.1,0.7-0.3l3.4-2.9l3.4,2.9c0.2,0.2,0.5,0.3,0.7,0.3c0.3,0,0.6-0.1,0.8-0.4
		c0.4-0.4,0.3-1.1-0.1-1.5L50.7,78.6z"/>
	<g id="XMLID_6_" display="inline">
		<path id="XMLID_8_" fill="#40444F" d="M14.2,23.4v-8.1h2.6c1.5,0,2.6,0.6,2.6,2.1c0,0.6-0.2,1-0.6,1.4c0.7,0.5,1.1,1.2,1.1,2
			c0,1.6-1.4,2.6-2.9,2.6H14.2z M16.8,18.3c0.8,0,0.9-0.4,0.9-0.7c0-0.6-0.4-0.7-0.9-0.7h-0.8v1.5H16.8z M17.1,21.8
			c0.7,0,1.1-0.4,1.1-1c0-0.6-0.4-1.1-1.1-1.1h-1.2v2.1H17.1z"/>
		<path id="XMLID_19_" fill="#40444F" d="M20.8,19.3c0-2.3,1.9-4.2,4.2-4.2c2.3,0,4.2,1.9,4.2,4.2s-1.9,4.2-4.2,4.2
			C22.6,23.5,20.8,21.6,20.8,19.3z M22.5,19.3c0,1.4,1.1,2.6,2.5,2.6c1.4,0,2.4-1.1,2.4-2.6c0-1.4-1.1-2.6-2.5-2.6
			C23.6,16.7,22.5,17.9,22.5,19.3z"/>
		<path id="XMLID_22_" fill="#40444F" d="M30,19.3c0-2.3,1.9-4.2,4.2-4.2c2.3,0,4.2,1.9,4.2,4.2s-1.9,4.2-4.2,4.2
			C31.9,23.5,30,21.6,30,19.3z M31.7,19.3c0,1.4,1.1,2.6,2.5,2.6c1.4,0,2.4-1.1,2.4-2.6c0-1.4-1.1-2.6-2.5-2.6
			C32.8,16.7,31.7,17.9,31.7,19.3z"/>
		<path id="XMLID_25_" fill="#40444F" d="M41.2,19.1l3.8-3.8h2.2l-4,4l4.1,4.1h-2.3l-3-3l-0.9,0.9v2.1h-1.7v-8.1h1.7V19.1z"/>
		<path id="XMLID_39_" fill="#40444F" d="M57.1,15.3h1.7l-4.1,8.2L53,20.2l-1.7,3.3L47,15.3h1.9l2.4,4.7l0.8-1.5l-1.7-3.3h1.9
			l2.4,4.7L57.1,15.3z"/>
		<path id="XMLID_57_" fill="#40444F" d="M58.5,19.3c0-2.3,1.9-4.2,4.2-4.2c2.3,0,4.2,1.9,4.2,4.2s-1.9,4.2-4.2,4.2
			C60.3,23.5,58.5,21.6,58.5,19.3z M60.2,19.3c0,1.4,1.1,2.6,2.5,2.6c1.4,0,2.4-1.1,2.4-2.6c0-1.4-1.1-2.6-2.5-2.6
			C61.3,16.7,60.2,17.9,60.2,19.3z"/>
		<path id="XMLID_60_" fill="#40444F" d="M69.7,22v1.4H68v-8.1h2.8c1.9,0,3.3,1.4,3.3,3.2c0,1.5-0.7,2.5-1.8,3l1.7,1.9h-2.2L70.5,22
			H69.7z M70.4,20.4c1.3,0,2.1-0.7,2.1-1.9c0-1-0.6-1.8-1.7-1.8h-1v3.6H70.4z"/>
		<path id="XMLID_63_" fill="#40444F" d="M83.9,15.1v8.2h-1.7v-4.9l-2.6,1.9L77,18.5v4.9h-1.7v-8.2l4.3,3.3L83.9,15.1z"/>
	</g>
</g>
<g id="logo_1_">
	<g id="XMLID_75_">
		<path id="XMLID_100_" fill="#40444F" d="M14.2,24.9v-8.1h2.6c1.5,0,2.6,0.6,2.6,2.1c0,0.6-0.2,1-0.6,1.4c0.7,0.5,1.1,1.2,1.1,2
			c0,1.6-1.4,2.6-2.9,2.6H14.2z M16.8,19.8c0.8,0,0.9-0.4,0.9-0.7c0-0.6-0.4-0.7-0.9-0.7h-0.8v1.5H16.8z M17.1,23.4
			c0.7,0,1.1-0.4,1.1-1c0-0.6-0.4-1.1-1.1-1.1h-1.2v2.1H17.1z"/>
		<path id="XMLID_97_" fill="#40444F" d="M20.8,20.8c0-2.3,1.9-4.2,4.2-4.2c2.3,0,4.2,1.9,4.2,4.2S27.3,25,25,25
			C22.6,25,20.8,23.2,20.8,20.8z M22.5,20.8c0,1.4,1.1,2.6,2.5,2.6c1.4,0,2.4-1.1,2.4-2.6c0-1.4-1.1-2.6-2.5-2.6
			C23.6,18.3,22.5,19.4,22.5,20.8z"/>
		<path id="XMLID_94_" fill="#40444F" d="M30,20.8c0-2.3,1.9-4.2,4.2-4.2c2.3,0,4.2,1.9,4.2,4.2S36.5,25,34.2,25
			C31.9,25,30,23.2,30,20.8z M31.7,20.8c0,1.4,1.1,2.6,2.5,2.6c1.4,0,2.4-1.1,2.4-2.6c0-1.4-1.1-2.6-2.5-2.6
			C32.8,18.3,31.7,19.4,31.7,20.8z"/>
		<path id="XMLID_92_" fill="#40444F" d="M41.2,20.6l3.8-3.8h2.2l-4,4l4.1,4.1h-2.3l-3-3l-0.9,0.9v2.1h-1.7v-8.1h1.7V20.6z"/>
		<path id="XMLID_90_" fill="#40444F" d="M57.1,16.8h1.7L54.7,25L53,21.7L51.3,25L47,16.8h1.9l2.4,4.7l0.8-1.5l-1.7-3.3h1.9l2.4,4.7
			L57.1,16.8z"/>
		<path id="XMLID_82_" fill="#40444F" d="M58.5,20.8c0-2.3,1.9-4.2,4.2-4.2c2.3,0,4.2,1.9,4.2,4.2S65,25,62.6,25
			C60.3,25,58.5,23.2,58.5,20.8z M60.2,20.8c0,1.4,1.1,2.6,2.5,2.6c1.4,0,2.4-1.1,2.4-2.6c0-1.4-1.1-2.6-2.5-2.6
			C61.3,18.3,60.2,19.4,60.2,20.8z"/>
		<path id="XMLID_78_" fill="#40444F" d="M69.7,23.5v1.4H68v-8.1h2.8c1.9,0,3.3,1.4,3.3,3.2c0,1.5-0.7,2.5-1.8,3l1.7,1.9h-2.2
			l-1.3-1.4H69.7z M70.4,22c1.3,0,2.1-0.7,2.1-1.9c0-1-0.6-1.8-1.7-1.8h-1V22H70.4z"/>
		<path id="XMLID_76_" fill="#40444F" d="M83.9,16.7v8.2h-1.7V20l-2.6,1.9L77,20v4.9h-1.7v-8.2l4.3,3.3L83.9,16.7z"/>
	</g>
	<path id="XMLID_108_" fill="#40444F" d="M84.7,6.6h-5H61.3H36.4h-8.7L25,0L0,6.6v13.5c0,7.5,6.1,13.5,13.5,13.5h6.4h16.5h24.9h5.5
		h3.6l2.7,6.6l25-6.6V20.2C98.2,12.7,92.1,6.6,84.7,6.6z M96,31.5H13.5c-6.3,0-11.4-5.1-11.4-11.4V8.8h82.5
		c6.3,0,11.4,5.1,11.4,11.4V31.5z"/>
</g>
</svg>
